<?xml version="1.0" encoding="UTF-8"?>
<!DOCTYPE svg PUBLIC "-//W3C//DTD SVG 1.1//EN" "http://www.w3.org/Graphics/SVG/1.1/DTD/svg11.dtd">
<svg xmlns="http://www.w3.org/2000/svg" version="1.1" width="411px" height="395px" style="shape-rendering:geometricPrecision; text-rendering:geometricPrecision; image-rendering:optimizeQuality; fill-rule:evenodd; clip-rule:evenodd" xmlns:xlink="http://www.w3.org/1999/xlink">
<g><path style="opacity:1" fill="#fefefe" d="M -0.5,-0.5 C 136.5,-0.5 273.5,-0.5 410.5,-0.5C 410.5,131.167 410.5,262.833 410.5,394.5C 273.5,394.5 136.5,394.5 -0.5,394.5C -0.5,262.833 -0.5,131.167 -0.5,-0.5 Z"/></g>
<g><path style="opacity:1" fill="#72928a" d="M 275.5,218.5 C 275.48,216.449 274.813,215.782 273.5,216.5C 273.942,217.739 274.609,218.739 275.5,219.5C 284.16,244.053 280.993,267.053 266,288.5C 253.49,301.179 238.99,311.012 222.5,318C 201.08,327.085 179.08,334.252 156.5,339.5C 171.263,342.329 185.93,341.829 200.5,338C 218.847,330.661 236.18,321.494 252.5,310.5C 239.242,322.71 223.909,332.877 206.5,341C 196.134,344.591 185.468,346.591 174.5,347C 195.996,352.942 215.996,349.942 234.5,338C 241.331,332.666 247.998,327.166 254.5,321.5C 255.167,321.5 255.5,321.833 255.5,322.5C 245.103,337.064 231.436,347.231 214.5,353C 211.146,353.455 207.813,353.955 204.5,354.5C 200.818,354.335 197.152,354.501 193.5,355C 194.745,355.791 196.078,356.291 197.5,356.5C 198.391,357.11 199.391,357.443 200.5,357.5C 198.393,358.468 196.059,358.802 193.5,358.5C 126.197,350.266 81.0301,314.266 58,250.5C 43.3263,199.255 51.6596,152.255 83,109.5C 84.6755,127.643 92.8422,141.81 107.5,152C 117.175,158.173 127.175,163.84 137.5,169C 160.149,177.824 182.816,186.324 205.5,194.5C 204.5,194.5 203.5,194.5 202.5,194.5C 176.657,187.136 150.657,180.302 124.5,174C 110.017,170.161 97.5173,162.994 87,152.5C 82.6277,145.054 79.6277,137.054 78,128.5C 76.4955,155.648 88.3289,174.481 113.5,185C 121.462,187.459 129.462,189.793 137.5,192C 168.924,198.068 199.924,205.735 230.5,215C 237.422,217.706 243.589,221.54 249,226.5C 249.667,227.167 249.667,227.833 249,228.5C 245.764,225.129 241.931,222.629 237.5,221C 230.754,217.917 223.754,215.584 216.5,214C 190.967,208.933 165.3,204.6 139.5,201C 130.424,199.321 121.424,197.321 112.5,195C 103.816,192.745 96.9831,187.912 92,180.5C 91.6044,185.915 92.9377,190.915 96,195.5C 104.472,205.654 115.305,211.487 128.5,213C 156.957,214.399 185.291,217.066 213.5,221C 226.724,223.516 239.057,228.183 250.5,235C 252.329,236.113 253.163,237.613 253,239.5C 241.634,231.145 228.801,226.645 214.5,226C 188.863,224.284 163.197,223.284 137.5,223C 132.81,222.497 128.143,221.83 123.5,221C 118.994,219.797 114.661,218.464 110.5,217C 119.671,227.755 131.338,234.088 145.5,236C 171.13,234.403 196.797,233.736 222.5,234C 235.602,235.222 246.935,240.222 256.5,249C 250.413,246.134 244.08,243.468 237.5,241C 228.588,239.251 219.588,238.417 210.5,238.5C 189.57,240.907 168.57,242.574 147.5,243.5C 142.695,243.412 138.028,242.912 133.5,242C 138.682,247.403 145.015,250.736 152.5,252C 165.958,252.758 179.291,251.758 192.5,249C 207.141,247.556 221.807,247.223 236.5,248C 252.288,249.442 259.788,257.942 259,273.5C 257.611,277.944 255.944,282.277 254,286.5C 249.037,293.296 243.537,299.63 237.5,305.5C 265.431,291.037 278.265,268.037 276,236.5C 269.061,213.223 254.561,196.389 232.5,186C 198.765,173.754 165.765,159.754 133.5,144C 119.313,136.313 107.146,126.146 97,113.5C 88.4052,98.3522 87.2385,82.6856 93.5,66.5C 94.1667,69.8333 94.8333,73.1667 95.5,76.5C 95.7705,81.5889 97.2705,86.2556 100,90.5C 134.898,58.5336 176.064,44.7003 223.5,49C 294.942,60.7756 340.109,101.609 359,171.5C 369.879,244.553 344.379,300.72 282.5,340C 269.943,346.185 256.943,351.185 243.5,355C 240.166,355.781 236.833,356.114 233.5,356C 238.588,352.917 243.088,349.083 247,344.5C 263.477,325.894 276.144,304.894 285,281.5C 289.586,265.139 289.586,248.805 285,232.5C 283.047,226.901 279.88,222.234 275.5,218.5 Z"/></g>
<g><path style="opacity:1" fill="#a5bab5" d="M 95.5,76.5 C 94.8333,73.1667 94.1667,69.8333 93.5,66.5C 94.0899,65.234 94.5899,63.9007 95,62.5C 95.4992,67.1548 95.6658,71.8215 95.5,76.5 Z"/></g>
<g><path style="opacity:1" fill="#fbfbfb" d="M 219.5,171.5 C 220.833,171.5 222.167,171.5 223.5,171.5C 236.344,174.392 248.844,178.392 261,183.5C 266.515,175.497 273.681,169.497 282.5,165.5C 276.549,163.693 271.882,160.193 268.5,155C 271.069,155.59 273.735,156.257 276.5,157C 286.167,157.333 295.833,157.667 305.5,158C 310.719,160.851 313.885,165.018 315,170.5C 311.589,167.936 307.922,167.27 304,168.5C 303.383,169.449 303.549,170.282 304.5,171C 311.833,171.333 319.167,171.667 326.5,172C 329.651,173.161 331.151,175.328 331,178.5C 330.5,178 330,177.5 329.5,177C 322.22,175.965 315.22,176.965 308.5,180C 306.522,180.481 305.189,181.647 304.5,183.5C 302.359,202.386 303.526,221.052 308,239.5C 310.009,264.144 303.342,286.144 288,305.5C 291.525,297.42 294.858,289.087 298,280.5C 308.742,233.817 292.242,200.983 248.5,182C 238.697,178.568 229.03,175.068 219.5,171.5 Z"/></g>
<g><path style="opacity:1" fill="#c0cecb" d="M 223.5,171.5 C 222.167,171.5 220.833,171.5 219.5,171.5C 215.087,171.147 210.754,170.314 206.5,169C 207.333,168.833 208.167,168.667 209,168.5C 213.948,169.628 218.781,170.628 223.5,171.5 Z"/></g>
<g><path style="opacity:1" fill="#8ea9a2" d="M 202.5,194.5 C 203.5,194.5 204.5,194.5 205.5,194.5C 214.474,197.151 223.141,200.651 231.5,205C 232.696,205.654 232.696,206.154 231.5,206.5C 221.895,202.084 212.228,198.084 202.5,194.5 Z"/></g>
<g><path style="opacity:1" fill="#b6c7c3" d="M 275.5,218.5 C 275.5,218.833 275.5,219.167 275.5,219.5C 274.609,218.739 273.942,217.739 273.5,216.5C 274.813,215.782 275.48,216.449 275.5,218.5 Z"/></g>
<g><path style="opacity:1" fill="#d8e1df" d="M 237.5,305.5 C 236.998,307.085 235.998,307.585 234.5,307C 235.244,305.961 236.244,305.461 237.5,305.5 Z"/></g>
<g><path style="opacity:1" fill="#97afa9" d="M 255.5,322.5 C 255.5,321.833 255.167,321.5 254.5,321.5C 257.462,318.036 260.629,314.703 264,311.5C 264.667,312.167 264.667,312.833 264,313.5C 260.934,316.396 258.101,319.396 255.5,322.5 Z"/></g>
<g><path style="opacity:1" fill="#cbd7d4" d="M 204.5,354.5 C 202.167,355.167 199.833,355.833 197.5,356.5C 196.078,356.291 194.745,355.791 193.5,355C 197.152,354.501 200.818,354.335 204.5,354.5 Z"/></g>
<g><path style="opacity:1" fill="#a6bbb6" d="M 200.5,357.5 C 202.414,358.185 204.414,358.685 206.5,359C 201.98,359.814 197.646,359.647 193.5,358.5C 196.059,358.802 198.393,358.468 200.5,357.5 Z"/></g>
</svg>
